<?xml version="1.0" encoding="UTF-8" standalone="yes"?>
<!DOCTYPE svg PUBLIC "-//W3C//DTD SVG 1.1//EN" "http://www.w3.org/Graphics/SVG/1.1/DTD/svg11.dtd">

<svg width="500" height="500" viewBox="0 0 500 500" xmlns="http://www.w3.org/2000/svg" xmlns:xlink="http://www.w3.org/1999/xlink" version="1.1" baseProfile="full">
    <g transform="scale(1,-1) translate(0,-500)">
        <path d="M 309.849200 2.206500 L 313.820800 2.812600 L 317.654200 3.798300 L 321.329200 5.143300 L 324.825800 6.827700 L 328.123800 8.831300 L 331.203100 11.134000 L 334.043700 13.715700 L 336.625400 16.556200 L 338.928100 19.635600 L 340.931600 22.933600 L 342.616000 26.430100 L 343.961100 30.105200 L 344.946800 33.938600 L 345.552900 37.910200 L 345.759400 41.999900 L 345.759400 308.198700 L 325.759400 308.198700 L 325.759400 41.999900 L 325.656200 39.955100 L 325.353100 37.969300 L 324.860300 36.052600 L 324.187700 34.215000 L 323.345500 32.466800 L 322.343700 30.817800 L 321.192400 29.278100 L 319.901600 27.857800 L 318.481300 26.567000 L 316.941600 25.415600 L 315.292600 24.413800 L 313.544300 23.571600 L 311.706800 22.899100 L 309.790100 22.406300 L 307.804300 22.103200 L 305.759400 21.999900 L 41.582200 21.999900 L 39.537300 22.103200 L 37.551500 22.406300 L 35.634800 22.899100 L 33.797300 23.571600 L 32.049000 24.413800 L 30.400000 25.415600 L 28.860300 26.567000 L 27.440100 27.857800 L 26.149200 29.278100 L 24.997900 30.817800 L 23.996100 32.466800 L 23.153900 34.215000 L 22.481300 36.052600 L 21.988500 37.969300 L 21.685400 39.955100 L 21.582200 41.999900 L 21.582200 308.198700 L 1.582200 308.198700 L 1.582200 41.999900 L 1.788700 37.910200 L 2.394800 33.938600 L 3.380500 30.105200 L 4.725600 26.430100 L 6.410000 22.933600 L 8.413600 19.635600 L 10.716200 16.556200 L 13.297900 13.715700 L 16.138500 11.134000 L 19.217800 8.831300 L 22.515800 6.827700 L 26.012400 5.143300 L 29.687400 3.798300 L 33.520800 2.812600 L 37.492400 2.206500 L 41.582200 2.000000 L 305.759400 2.000000 Z" transform="scale(1.000000,1.000000) translate(77.000000,-2.000000)" fill="#ffffff" opacity="1.000000"></path>
        <path d="M 21.622095 12.034873 C 21.622095 17.804346 17.137875 22.481428 11.606309 22.481428 C 6.074743 22.481428 1.590523 17.804346 1.590523 12.034873 C 1.590523 6.265400 6.074743 1.588318 11.606309 1.588318 C 17.137875 1.588318 21.622095 6.265400 21.622095 12.034873 Z" transform="scale(1.000000,1.000000) translate(77.000000,294.000000)" fill="#ffffff" opacity="1.000000"></path>
        <path d="M 21.780901 12.198752 C 21.780901 17.968225 17.296681 22.645308 11.765115 22.645308 C 6.233549 22.645308 1.749329 17.968225 1.749329 12.198752 C 1.749329 6.429279 6.233549 1.752197 11.765115 1.752197 C 17.296681 1.752197 21.780901 6.429279 21.780901 12.198752 Z" transform="scale(1.000000,1.000000) translate(401.000000,294.000000)" fill="#ffffff" opacity="1.000000"></path>
        <path d="M 1.000000 11.387533 L 1.000000 229.167088 C 1.000000 234.689936 5.477153 239.167088 11.000000 239.167088 C 16.522847 239.167088 21.000000 234.689936 21.000000 229.167088 L 21.000000 11.387533 C 21.000000 5.864686 16.522847 1.387533 11.000000 1.387533 C 5.477153 1.387533 1.000000 5.864686 1.000000 11.387533 Z" transform="scale(1.000000,1.000000) translate(239.000000,47.000000)" fill="#ffffff" opacity="1.000000"></path>
        <path d="M 1.172888 11.387533 L 1.172888 229.167088 C 1.172888 234.689936 5.650041 239.167088 11.172888 239.167088 C 16.695736 239.167088 21.172888 234.689936 21.172888 229.167088 L 21.172888 11.387533 C 21.172888 5.864686 16.695736 1.387533 11.172888 1.387533 C 5.650041 1.387533 1.172888 5.864686 1.172888 11.387533 Z" transform="scale(1.000000,1.000000) translate(321.000000,47.000000)" fill="#ffffff" opacity="1.000000"></path>
        <path d="M 1.168822 11.387533 L 1.168822 229.167088 C 1.168822 234.689936 5.645975 239.167088 11.168822 239.167088 C 16.691670 239.167088 21.168822 234.689936 21.168822 229.167088 L 21.168822 11.387533 C 21.168822 5.864686 16.691670 1.387533 11.168822 1.387533 C 5.645975 1.387533 1.168822 5.864686 1.168822 11.387533 Z" transform="scale(1.000000,1.000000) translate(158.000000,47.000000)" fill="#ffffff" opacity="1.000000"></path>
        <path d="M 41.298332 21.976440 L 396.043388 21.976440 C 407.089083 21.976440 416.043388 30.930745 416.043388 41.976440 L 416.043388 55.728714 C 416.043388 66.774409 407.089083 75.728714 396.043388 75.728714 L 41.298332 75.728714 C 30.252637 75.728714 21.298332 66.774409 21.298332 55.728714 L 21.298332 41.976440 C 21.298332 30.930745 30.252637 21.976440 41.298332 21.976440 Z M 41.298332 1.976440 C 19.206942 1.976440 1.298332 19.885050 1.298332 41.976440 L 1.298332 55.728714 C 1.298332 77.820104 19.206942 95.728714 41.298332 95.728714 L 396.043388 95.728714 C 418.134778 95.728714 436.043388 77.820104 436.043388 55.728714 L 436.043388 41.976440 C 436.043388 19.885050 418.134778 1.976440 396.043388 1.976440 L 41.298332 1.976440 Z" transform="scale(1.000000,1.000000) translate(32.000000,329.000000)" fill="#ffffff" opacity="1.000000"></path>
        <path d="M 1.641194 11.382496 L 1.641194 50.825224 C 1.641194 56.348071 6.118346 60.825224 11.641194 60.825224 L 148.587905 60.825224 C 154.110753 60.825224 158.587905 56.348071 158.587905 50.825224 L 158.587905 11.382496 C 158.587905 5.859648 154.110753 1.382496 148.587905 1.382496 C 143.065058 1.382496 138.587905 5.859648 138.587905 11.382496 L 138.587905 50.825224 L 148.587905 40.825224 L 11.641194 40.825224 L 21.641194 50.825224 L 21.641194 11.382496 C 21.641194 5.859648 17.164041 1.382496 11.641194 1.382496 C 6.118346 1.382496 1.641194 5.859648 1.641194 11.382496 Z" transform="scale(1.000000,1.000000) translate(172.000000,439.000000)" fill="#ffffff" opacity="1.000000"></path>
    </g>
</svg>