<?xml version="1.0" encoding="UTF-8" standalone="yes"?>
<!DOCTYPE svg PUBLIC "-//W3C//DTD SVG 1.1//EN" "http://www.w3.org/Graphics/SVG/1.1/DTD/svg11.dtd">

<svg width="500" height="500" viewBox="0 0 500 500" xmlns="http://www.w3.org/2000/svg" xmlns:xlink="http://www.w3.org/1999/xlink" version="1.1" baseProfile="full">
    <g transform="scale(1,-1) translate(0,-500)">
        <path d="M 410.207600 346.253900 L 412.792600 349.429900 L 415.001600 352.785700 L 416.836100 356.293000 L 418.297600 359.923200 L 419.387700 363.648200 L 420.107700 367.439300 L 420.459100 371.268300 L 420.443400 375.106700 L 420.062100 378.926200 L 419.316700 382.698300 L 418.208500 386.394700 L 416.739200 389.986900 L 414.910100 393.446700 L 412.722800 396.745400 L 410.178600 399.854900 L 407.279200 402.746600 L 368.009800 438.145200 L 364.833800 440.730200 L 361.478000 442.939200 L 357.970800 444.773700 L 354.340500 446.235200 L 350.615600 447.325300 L 346.824400 448.045300 L 342.995400 448.396700 L 339.157000 448.381000 L 335.337500 447.999700 L 331.565400 447.254300 L 327.869000 446.146100 L 324.276800 444.676800 L 320.817100 442.847700 L 317.518300 440.660400 L 314.408900 438.116200 L 311.517200 435.216800 L 12.808100 103.845600 L 27.663400 90.454500 L 326.372400 421.825700 L 327.818300 423.275400 L 329.373000 424.547500 L 331.022400 425.641200 L 332.752200 426.555700 L 334.548400 427.290400 L 336.396600 427.844500 L 338.282600 428.217200 L 340.192400 428.407800 L 342.111600 428.415700 L 344.026100 428.240000 L 345.921700 427.880000 L 347.784100 427.335000 L 349.599200 426.604200 L 351.352900 425.686900 L 353.030800 424.582400 L 354.618800 423.290000 L 393.888100 387.891300 L 395.337800 386.445400 L 396.609900 384.890700 L 397.703600 383.241300 L 398.618100 381.511500 L 399.352800 379.715300 L 399.906900 377.867200 L 400.279600 375.981100 L 400.470200 374.071300 L 400.478100 372.152100 L 400.302400 370.237600 L 399.942400 368.342100 L 399.397400 366.479600 L 398.666600 364.664500 L 397.749300 362.910800 L 396.644800 361.232900 L 395.352400 359.644900 L 96.643300 28.273700 L 111.498600 14.882700 Z" transform="scale(1.000000,1.000000) translate(46.000000,36.000000)" fill="#ffffff" opacity="1.000000"></path>
        <path d="M 15.017784 83.644621 L 87.210337 16.551960 L 73.595136 1.901831 L 1.402582 68.994492 L 15.017784 83.644621 Z" transform="scale(1.000000,1.000000) translate(306.000000,322.000000)" fill="#ffffff" opacity="1.000000"></path>
        <path d="M 43.380612 116.471547 L 22.646291 93.470046 L 25.211580 99.789713 L 21.889324 11.461446 L 10.455639 21.732974 L 97.676899 34.431873 L 91.690004 31.231733 L 115.656464 57.818789 L 130.511755 44.427734 L 106.545295 17.840678 C 104.983858 16.108508 102.866128 14.976530 100.558400 14.640538 L 13.337140 1.941638 C 7.153864 1.041390 1.668601 5.969113 1.903456 12.213166 L 5.225712 100.541433 C 5.313804 102.883517 6.221743 105.120253 7.791001 106.861100 L 28.525322 129.862602 L 43.380612 116.471547 Z" transform="scale(1.000000,1.000000) translate(51.000000,33.000000)" fill="#ffffff" opacity="1.000000"></path>
        <path d="M 14.842540 91.525000 L 98.879012 16.048128 L 85.514980 1.168522 L 1.478508 76.645395 L 14.842540 91.525000 Z" transform="scale(1.000000,1.000000) translate(67.000000,59.000000)" fill="#ffffff" opacity="1.000000"></path>
    </g>
</svg>