<?xml version="1.0" encoding="UTF-8" standalone="yes"?>
<!DOCTYPE svg PUBLIC "-//W3C//DTD SVG 1.1//EN" "http://www.w3.org/Graphics/SVG/1.1/DTD/svg11.dtd">

<svg width="500" height="500" viewBox="0 0 500 500" xmlns="http://www.w3.org/2000/svg" xmlns:xlink="http://www.w3.org/1999/xlink" version="1.1" baseProfile="full">
    <g transform="scale(1,-1) translate(0,-500)">
        <path d="M 228.150058 398.260559 L 263.704990 465.841696 L 267.445550 472.951576 L 275.194452 470.831035 L 322.681041 457.835998 L 330.429943 455.715457 L 330.029064 447.691650 L 326.218612 371.423414 L 322.010313 380.083307 L 342.799914 365.360895 L 333.234053 366.455344 L 403.911034 395.371223 L 411.346612 398.413320 L 415.919557 391.807994 L 443.943345 351.329426 L 448.516291 344.724099 L 443.051595 338.835186 L 391.108338 282.859646 L 393.451067 292.198552 L 399.913441 267.557233 L 393.289063 274.544446 L 466.017541 251.265022 L 473.668948 248.815907 L 472.926205 240.816500 L 468.374550 191.794760 L 467.631808 183.795352 L 459.660288 182.796822 L 383.889061 173.305552 L 391.686628 178.953692 L 380.797959 155.923412 L 380.214686 165.533996 L 420.964206 100.951959 L 425.251263 94.157599 L 419.540369 88.507123 L 384.543033 53.880038 L 378.832139 48.229562 L 372.083757 52.588638 L 307.938760 94.022709 L 317.542597 93.337256 L 294.397814 82.694139 L 300.128566 90.431203 L 289.832035 14.765216 L 288.748786 6.804761 L 280.741927 6.147136 L 231.674491 2.117093 L 223.667636 1.459468 L 221.300035 9.136491 L 198.795424 82.108441 L 205.711789 75.410126 L 181.140594 82.134205 L 190.503893 84.377483 L 133.979134 33.032457 L 128.032435 27.630693 L 121.476112 32.273633 L 81.297814 60.726381 L 74.741493 65.369319 L 77.862501 72.772123 L 107.528434 143.137565 L 108.521083 133.560604 L 94.020610 154.505608 L 102.635265 150.205446 L 26.330841 147.206289 L 18.303218 146.890762 L 16.265207 154.661785 L 3.775911 202.284026 L 1.737900 210.055049 L 8.887169 213.719778 L 76.842636 248.553881 L 71.447090 240.579437 L 73.802272 265.944965 L 77.637390 257.113457 L 17.256989 303.863508 L 10.904656 308.781856 L 14.338567 316.044814 L 35.382197 360.553532 L 38.816108 367.816489 L 46.648408 366.028372 L 121.096245 349.031911 L 111.837144 346.391322 L 129.945965 364.308562 L 127.207051 355.078069 L 111.003334 429.702459 L 109.298618 437.553334 L 116.597686 440.909806 L 161.327694 461.478878 L 168.626761 464.835350 L 173.477272 458.431068 L 219.582509 397.556876 L 210.792288 401.485703 L 236.181430 403.570980 L 228.150058 398.260559 Z M 245.849942 388.948519 L 243.292628 384.087697 L 237.818570 383.638098 L 212.429428 381.552822 L 206.955364 381.103223 L 203.639207 385.481649 L 157.533970 446.355840 L 169.683549 443.308030 L 124.953541 422.738959 L 130.547892 433.946306 L 146.751610 359.321916 L 147.917075 353.954495 L 144.012696 350.091422 L 125.903875 332.174182 L 121.999495 328.311109 L 116.644774 329.533593 L 42.196937 346.530054 L 53.463148 352.004895 L 32.419519 307.496177 L 29.501097 319.677483 L 89.881498 272.927432 L 94.224408 269.564897 L 93.716615 264.095924 L 91.361433 238.730396 L 90.853641 233.261424 L 85.965888 230.755952 L 18.010422 195.921850 L 23.121681 207.357602 L 35.610978 159.735362 L 25.545344 167.190858 L 101.849768 170.190015 L 107.338026 170.405732 L 110.464423 165.889853 L 124.964896 144.944849 L 128.091289 140.428975 L 125.957545 135.367888 L 96.291612 65.002446 L 92.856300 77.048189 L 133.034597 48.595441 L 120.531575 47.836617 L 177.056334 99.181643 L 181.121924 102.874676 L 186.419633 101.424921 L 210.990829 94.700842 L 216.288533 93.251088 L 217.907194 88.002527 L 240.411805 15.030577 L 230.037349 22.049975 L 279.104785 26.080017 L 270.014676 17.461937 L 280.311207 93.127924 L 281.051794 98.570262 L 286.041959 100.864987 L 309.186742 111.508103 L 314.176903 113.802826 L 318.790579 110.822650 L 382.935577 69.388579 L 370.476302 68.097179 L 405.473638 102.724263 L 404.049802 90.279427 L 363.300282 154.861465 L 360.369342 159.506575 L 362.717008 164.472049 L 373.605676 187.502329 L 375.953342 192.467802 L 381.403243 193.150469 L 457.174470 202.641738 L 448.460208 193.643801 L 453.011862 242.665541 L 459.920526 232.217019 L 387.192049 255.496443 L 381.961000 257.170833 L 380.567671 262.483657 L 374.105297 287.124976 L 372.711968 292.437799 L 376.448025 296.463882 L 428.391282 352.439422 L 427.499532 339.945182 L 399.475745 380.423749 L 411.484267 376.860520 L 340.807286 347.944641 L 335.723794 345.864845 L 331.241426 349.039089 L 310.451825 363.761501 L 305.969457 366.935745 L 306.243526 372.421393 L 310.053979 448.689629 L 317.402002 438.545282 L 269.915413 451.540318 L 281.404875 456.529657 L 245.849942 388.948519 Z" transform="scale(1.000000,1.000000) translate(13.000000,12.000000)" fill="#ffffff" opacity="1.000000"></path>
        <path d="M 161.854247 91.500008 C 161.854247 130.355581 130.355581 161.854247 91.500008 161.854247 C 52.644434 161.854247 21.145768 130.355581 21.145768 91.500008 C 21.145768 52.644434 52.644434 21.145768 91.500008 21.145768 C 130.355581 21.145768 161.854247 52.644434 161.854247 91.500008 Z M 181.854247 91.500008 C 181.854247 41.598739 141.401276 1.145768 91.500008 1.145768 C 41.598739 1.145768 1.145768 41.598739 1.145768 91.500008 C 1.145768 141.401276 41.598739 181.854247 91.500008 181.854247 C 141.401276 181.854247 181.854247 141.401276 181.854247 91.500008 Z" transform="scale(1.000000,1.000000) translate(159.000000,159.000000)" fill="#ffffff" opacity="1.000000"></path>
    </g>
</svg>