<?xml version="1.0" encoding="UTF-8" standalone="yes"?>
<!DOCTYPE svg PUBLIC "-//W3C//DTD SVG 1.1//EN" "http://www.w3.org/Graphics/SVG/1.1/DTD/svg11.dtd">

<svg width="500" height="500" viewBox="0 0 500 500" xmlns="http://www.w3.org/2000/svg" xmlns:xlink="http://www.w3.org/1999/xlink" version="1.1" baseProfile="full">
    <g transform="scale(1,-1) translate(0,-500)">
        <path d="M 18.322306 175.071077 L 174.828606 18.564758 C 178.733848 14.659515 178.733848 8.327865 174.828605 4.422623 C 170.923362 0.517380 164.591712 0.517380 160.686469 4.422624 L 4.180169 160.928942 C 0.274927 164.834185 0.274927 171.165835 4.180170 175.071077 C 8.085413 178.976320 14.417063 178.976320 18.322306 175.071077 Z" transform="scale(1.000000,1.000000) translate(-1.000000,82.000000)" fill="#bbbbbb" opacity="1.000000"></path>
        <path d="M 4.686470 18.564759 L 327.677704 341.555956 C 331.582947 345.461198 337.914597 345.461198 341.819840 341.555955 C 345.725082 337.650712 345.725082 331.319062 341.819839 327.413819 L 18.828605 4.422623 C 14.923362 0.517380 8.591712 0.517380 4.686469 4.422624 C 0.781227 8.327867 0.781227 14.659516 4.686470 18.564759 Z" transform="scale(1.000000,1.000000) translate(155.000000,82.000000)" fill="#bbbbbb" opacity="1.000000"></path>
    </g>
</svg>