<?xml version="1.0" encoding="UTF-8" standalone="yes"?>
<!DOCTYPE svg PUBLIC "-//W3C//DTD SVG 1.1//EN" "http://www.w3.org/Graphics/SVG/1.1/DTD/svg11.dtd">

<svg width="500" height="500" viewBox="0 0 500 500" xmlns="http://www.w3.org/2000/svg" xmlns:xlink="http://www.w3.org/1999/xlink" version="1.1" baseProfile="full">
    <g transform="scale(1,-1) translate(0,-500)">
        <path d="M 41.780273 21.000000 L 336.219719 21.000000 C 347.265416 21.000000 356.219722 29.954305 356.219722 41.000000 L 356.219722 273.579926 C 356.219722 284.625620 347.265416 293.579926 336.219719 293.579926 L 41.780273 293.579926 C 30.734576 293.579926 21.780270 284.625620 21.780270 273.579926 L 21.780270 41.000000 C 21.780270 29.954305 30.734576 21.000000 41.780273 21.000000 Z M 41.780273 1.000000 C 19.688882 1.000000 1.780270 18.908610 1.780270 41.000000 L 1.780270 273.579926 C 1.780270 295.671316 19.688882 313.579926 41.780273 313.579926 L 336.219719 313.579926 C 358.311111 313.579926 376.219722 295.671316 376.219722 273.579926 L 376.219722 41.000000 C 376.219722 18.908610 358.311111 1.000000 336.219719 1.000000 L 41.780273 1.000000 Z" transform="scale(1.000000,1.000000) translate(61.000000,-1.000000)" fill="#ffffff" opacity="1.000000"></path>
        <path d="M 12.905900 1.406000 L 14.796100 1.944500 L 16.516000 2.826400 L 18.024200 4.012400 L 19.279600 5.463400 L 20.241200 7.139900 L 20.867800 9.002800 L 21.118200 11.012800 L 21.685000 35.164800 L 21.419300 38.802500 L 21.285700 44.298400 L 21.419300 49.794400 L 21.815500 55.218100 L 22.296400 59.156800 L 12.010600 59.156800 L 10.026900 58.959900 L 8.175100 58.394500 L 6.494200 57.498700 L 5.023000 56.310300 L 3.800500 54.867400 L 2.865400 53.208000 L 2.256800 51.370000 L 2.013400 49.391400 L 1.123700 11.482100 L 1.279500 9.462500 L 1.818000 7.572300 L 2.699900 5.852500 L 3.885900 4.344200 L 5.336800 3.088800 L 7.013400 2.127200 L 8.876300 1.500600 L 10.886300 1.250200 Z M 238.225300 1.450600 L 240.102400 2.033300 L 241.801000 2.955300 L 243.281000 4.176400 L 244.502100 5.656400 L 245.424100 7.355000 L 246.006800 9.232100 L 246.209900 11.247500 L 246.209900 49.156800 L 246.006800 51.172100 L 245.424100 53.049200 L 244.502100 54.747900 L 243.281000 56.227900 L 241.801000 57.448900 L 240.102400 58.370900 L 238.225300 58.953600 L 236.209900 59.156800 L 225.499100 59.156800 L 225.980000 55.218100 L 226.376200 49.794400 L 226.509700 44.298400 L 226.376200 38.802500 L 226.209900 36.525900 L 226.209900 11.247500 L 226.413100 9.232100 L 226.995800 7.355000 L 227.917800 5.656400 L 229.138900 4.176400 L 230.618800 2.955300 L 232.317500 2.033300 L 234.194600 1.450600 L 236.209900 1.247500 Z" transform="scale(1.000000,1.000000) translate(125.000000,328.000000)" fill="#ffffff" opacity="1.000000"></path>
        <path d="M 236.780400 1.578400 L 238.657500 2.161100 L 240.356200 3.083100 L 241.836200 4.304200 L 243.057200 5.784200 L 243.979200 7.482800 L 244.561900 9.359900 L 244.765100 11.375300 L 244.606500 17.647100 L 244.135800 23.836500 L 243.360800 29.936000 L 242.289000 35.937800 L 240.928100 41.834300 L 239.285700 47.617800 L 237.369600 53.280800 L 235.187400 58.815400 L 232.746700 64.214100 L 230.055200 69.469200 L 227.120500 74.573100 L 223.950400 79.518000 L 220.552400 84.296400 L 216.934300 88.900500 L 213.103600 93.322800 L 209.068100 97.555500 L 204.835400 101.591000 L 200.413100 105.421700 L 195.808900 109.039800 L 191.030600 112.437800 L 186.085600 115.607900 L 180.981800 118.542600 L 175.726700 121.234100 L 170.328000 123.674800 L 164.793300 125.857000 L 159.130400 127.773200 L 153.346900 129.415500 L 147.450400 130.776400 L 141.448600 131.848200 L 135.349100 132.623300 L 129.159600 133.093900 L 122.887900 133.252500 L 116.616100 133.093900 L 110.426600 132.623300 L 104.327200 131.848200 L 98.325300 130.776400 L 92.428800 129.415500 L 86.645300 127.773200 L 80.982400 125.857000 L 75.447700 123.674800 L 70.049000 121.234100 L 64.793900 118.542600 L 59.690100 115.607900 L 54.745100 112.437800 L 49.966800 109.039800 L 45.362600 105.421700 L 40.940400 101.591000 L 36.707600 97.555500 L 32.672100 93.322800 L 28.841500 88.900500 L 25.223300 84.296400 L 21.825300 79.518000 L 18.655200 74.573100 L 15.720500 69.469200 L 13.029000 64.214100 L 10.588300 58.815400 L 8.406100 53.280800 L 6.490000 47.617800 L 4.847600 41.834300 L 3.486700 35.937800 L 2.414900 29.936000 L 1.639900 23.836500 L 1.169200 17.647100 L 1.010600 11.375300 L 1.213800 9.359900 L 1.796500 7.482800 L 2.718500 5.784200 L 3.939500 4.304200 L 5.419500 3.083100 L 7.118200 2.161100 L 8.995300 1.578400 L 11.010600 1.375300 L 20.405400 1.375300 L 20.285700 6.298400 L 20.419300 11.794400 L 20.815500 17.218100 L 21.468100 22.563100 L 22.110100 26.304900 L 22.184500 26.890200 L 23.080400 31.907100 L 24.218000 36.836000 L 25.590800 41.670500 L 27.192500 46.404100 L 29.016600 51.030500 L 31.056800 55.543300 L 33.306600 59.936000 L 35.759700 64.202300 L 38.409600 68.335800 L 41.250000 72.330100 L 44.274400 76.178700 L 47.476500 79.875200 L 50.849800 83.413400 L 54.387900 86.786700 L 58.084500 89.988700 L 61.933100 93.013100 L 65.927300 95.853500 L 70.060800 98.503400 L 74.327100 100.956500 L 78.719900 103.206300 L 83.232600 105.246500 L 87.859000 107.070600 L 92.592700 108.672300 L 97.427100 110.045100 L 102.356000 111.182700 L 107.373000 112.078700 L 112.471500 112.726500 L 117.645300 113.120000 L 122.887900 113.252500 L 128.130400 113.120000 L 133.304200 112.726500 L 138.402700 112.078700 L 143.419700 111.182700 L 148.348600 110.045100 L 153.183000 108.672300 L 157.916700 107.070600 L 162.543100 105.246500 L 167.055800 103.206300 L 171.448600 100.956500 L 175.714900 98.503400 L 179.848400 95.853500 L 183.842600 93.013100 L 187.691200 89.988700 L 191.387800 86.786700 L 194.925900 83.413400 L 198.299200 79.875200 L 201.501300 76.178700 L 204.525700 72.330100 L 207.366100 68.335800 L 210.016000 64.202300 L 212.469100 59.936000 L 214.718900 55.543300 L 216.759100 51.030500 L 218.583200 46.404100 L 220.184900 41.670500 L 221.557700 36.836000 L 222.695300 31.907100 L 223.423600 27.828600 L 223.425000 27.822400 L 223.431600 27.784000 L 223.591200 26.890200 L 223.609000 26.749700 L 224.327400 22.563100 L 224.980000 17.218100 L 225.376200 11.794400 L 225.509700 6.298400 L 225.390100 1.375300 L 234.765100 1.375300 Z" transform="scale(1.000000,1.000000) translate(126.000000,366.000000)" fill="#ffffff" opacity="1.000000"></path>
        <path d="M 38.432300 1.691300 L 41.717000 2.192600 L 44.887300 3.007800 L 47.926700 4.120200 L 50.818500 5.513300 L 53.546000 7.170300 L 56.092800 9.074700 L 58.442000 11.209800 L 60.577100 13.559100 L 62.481500 16.105800 L 64.138600 18.833400 L 65.531600 21.725100 L 66.644000 24.764500 L 67.459200 27.934800 L 67.960500 31.219500 L 68.131300 34.601900 L 68.131300 83.041100 L 48.254100 83.041100 L 48.254100 49.402800 L 48.131300 49.402800 L 48.131300 34.601900 L 47.865500 31.965500 L 47.103300 29.510000 L 45.897200 27.288000 L 44.299900 25.352000 L 42.363900 23.754600 L 40.141800 22.548500 L 37.686300 21.786300 L 35.050000 21.520500 L 34.950000 21.520500 L 32.313600 21.786300 L 29.858100 22.548500 L 27.636100 23.754600 L 25.700100 25.352000 L 24.102700 27.288000 L 22.896600 29.510000 L 22.134400 31.965500 L 21.868600 34.601900 L 21.868600 49.402800 L 21.745800 49.402800 L 21.745800 83.041100 L 1.868600 83.041100 L 1.868600 34.601900 L 2.039400 31.219500 L 2.540700 27.934800 L 3.355900 24.764500 L 4.468300 21.725100 L 5.861400 18.833400 L 7.518400 16.105800 L 9.422800 13.559100 L 11.557900 11.209800 L 13.907200 9.074700 L 16.453900 7.170300 L 19.181400 5.513300 L 22.073200 4.120200 L 25.112600 3.007800 L 28.282900 2.192600 L 31.567600 1.691300 L 34.950000 1.520500 L 35.050000 1.520500 Z" transform="scale(1.000000,1.000000) translate(215.000000,80.000000)" fill="#ffffff" opacity="1.000000"></path>
        <path d="M 57.684500 4.281200 L 61.206900 5.978000 L 64.529200 7.996300 L 67.631200 10.316000 L 70.492700 12.916700 L 73.093400 15.778200 L 75.413100 18.880200 L 77.431400 22.202500 L 79.128200 25.724900 L 80.483200 29.427000 L 81.476200 33.288700 L 82.086800 37.289600 L 82.294800 41.409500 L 82.086800 45.529400 L 81.476200 49.530300 L 80.483200 53.391900 L 79.128200 57.094100 L 77.431400 60.616400 L 75.413100 63.938700 L 73.093400 67.040800 L 70.492700 69.902300 L 67.631200 72.503000 L 64.529200 74.822600 L 61.206900 76.841000 L 57.684500 78.537800 L 53.982400 79.892800 L 50.120800 80.885700 L 46.119900 81.496300 L 41.999900 81.704300 L 37.880000 81.496300 L 33.879100 80.885700 L 30.017500 79.892800 L 26.315400 78.537800 L 22.793000 76.841000 L 19.470700 74.822600 L 16.368700 72.503000 L 13.507200 69.902300 L 10.906500 67.040800 L 8.586800 63.938700 L 6.568400 60.616400 L 4.871600 57.094100 L 3.516700 53.391900 L 2.523700 49.530300 L 1.913100 45.529400 L 1.705100 41.409500 L 1.913100 37.289600 L 2.523700 33.288700 L 3.516700 29.427000 L 4.871600 25.724900 L 6.568400 22.202500 L 8.586800 18.880200 L 10.906500 15.778200 L 13.507200 12.916700 L 16.368700 10.316000 L 19.470700 7.996300 L 22.793000 5.978000 L 26.315400 4.281200 L 28.745800 3.391700 L 28.745800 26.062300 L 27.649300 27.058800 L 26.339400 28.500100 L 25.171100 30.062400 L 24.154600 31.735700 L 23.299900 33.509800 L 22.617500 35.374400 L 22.117400 37.319400 L 21.809900 39.334400 L 21.705100 41.409500 L 21.809900 43.484500 L 22.117400 45.499600 L 22.617500 47.444600 L 23.299900 49.309200 L 24.154600 51.083200 L 25.171100 52.756500 L 26.339400 54.318900 L 27.649300 55.760100 L 29.090500 57.070000 L 30.652900 58.238300 L 32.326200 59.254900 L 34.100300 60.109500 L 35.964900 60.791900 L 37.909800 61.292000 L 39.924900 61.599600 L 41.999900 61.704300 L 44.075000 61.599600 L 46.090100 61.292000 L 48.035000 60.791900 L 49.899600 60.109500 L 51.673700 59.254900 L 53.347000 58.238300 L 54.909400 57.070000 L 56.350600 55.760100 L 57.660500 54.318900 L 58.828800 52.756500 L 59.845300 51.083200 L 60.699900 49.309200 L 61.382400 47.444600 L 61.882500 45.499600 L 62.190000 43.484500 L 62.294800 41.409500 L 62.190000 39.334400 L 61.882500 37.319400 L 61.382400 35.374400 L 60.699900 33.509800 L 59.845300 31.735700 L 58.828800 30.062400 L 57.660500 28.500100 L 56.350600 27.058800 L 55.254100 26.062300 L 55.254100 3.391700 Z" transform="scale(1.000000,1.000000) translate(208.000000,144.000000)" fill="#ffffff" opacity="1.000000"></path>
    </g>
</svg>