<?xml version="1.0" encoding="UTF-8" standalone="yes"?>
<!DOCTYPE svg PUBLIC "-//W3C//DTD SVG 1.1//EN" "http://www.w3.org/Graphics/SVG/1.1/DTD/svg11.dtd">

<svg width="500" height="500" viewBox="0 0 500 500" xmlns="http://www.w3.org/2000/svg" xmlns:xlink="http://www.w3.org/1999/xlink" version="1.1" baseProfile="full">
    <g transform="scale(1,-1) translate(0,-500)">
        <path d="M 41.519581 21.000000 L 292.480419 21.000000 C 303.526116 21.000000 312.480422 29.954305 312.480422 41.000000 L 312.480422 287.809021 C 312.480422 298.854716 303.526116 307.809021 292.480419 307.809021 L 41.519581 307.809021 C 30.473884 307.809021 21.519578 298.854716 21.519578 287.809021 L 21.519578 41.000000 C 21.519578 29.954305 30.473884 21.000000 41.519581 21.000000 Z M 41.519581 1.000000 C 19.428189 1.000000 1.519578 18.908610 1.519578 41.000000 L 1.519578 287.809021 C 1.519578 309.900411 19.428189 327.809021 41.519581 327.809021 L 292.480419 327.809021 C 314.571811 327.809021 332.480422 309.900411 332.480422 287.809021 L 332.480422 41.000000 C 332.480422 18.908610 314.571811 1.000000 292.480419 1.000000 L 41.519581 1.000000 Z" transform="scale(1.000000,1.000000) translate(83.000000,-1.000000)" fill="#a4d4bd" opacity="1.000000"></path>
        <path d="M 11.612636 21.854445 L 327.262120 21.024926 L 320.580983 3.560855 L 163.345140 143.749402 L 176.605075 143.705315 L 18.191434 4.346287 L 11.612636 21.854445 Z M 11.560077 1.854514 C 2.352540 1.878711 -1.931941 13.281000 4.981279 19.362671 L 163.394919 158.721700 C 167.190627 162.060844 172.881435 162.041924 176.654854 158.677613 L 333.890698 18.489067 C 340.758205 12.366125 336.410239 1.000816 327.209561 1.024995 L 11.560077 1.854514 Z" transform="scale(1.000000,1.000000) translate(80.000000,339.000000)" fill="#a4d4bd" opacity="1.000000"></path>
    </g>
</svg>