<?xml version="1.0" encoding="UTF-8" standalone="yes"?>
<!DOCTYPE svg PUBLIC "-//W3C//DTD SVG 1.1//EN" "http://www.w3.org/Graphics/SVG/1.1/DTD/svg11.dtd">

<svg width="500" height="500" viewBox="0 0 500 500" xmlns="http://www.w3.org/2000/svg" xmlns:xlink="http://www.w3.org/1999/xlink" version="1.1" baseProfile="full">
    <g transform="scale(1,-1) translate(0,-500)">
        <path d="M 1.000000 11.244916 L 1.000000 490.465328 C 1.000000 495.988175 5.477153 500.465328 11.000000 500.465328 C 16.522847 500.465328 21.000000 495.988175 21.000000 490.465328 L 21.000000 11.244916 C 21.000000 5.722069 16.522847 1.244916 11.000000 1.244916 C 5.477153 1.244916 1.000000 5.722069 1.000000 11.244916 Z" transform="scale(1.000000,1.000000) translate(239.000000,-1.000000)" fill="#ffffff" opacity="1.000000"></path>
        <path d="M 490.582776 1.000000 L 11.086213 1.000000 C 5.563365 1.000000 1.086213 5.477153 1.086213 11.000000 C 1.086213 16.522847 5.563365 21.000000 11.086213 21.000000 L 490.582776 21.000000 C 496.105623 21.000000 500.582776 16.522847 500.582776 11.000000 C 500.582776 5.477153 496.105623 1.000000 490.582776 1.000000 Z" transform="scale(1.000000,1.000000) translate(-1.000000,239.000000)" fill="#ffffff" opacity="1.000000"></path>
    </g>
</svg>