<?xml version="1.0" encoding="UTF-8" standalone="yes"?>
<!DOCTYPE svg PUBLIC "-//W3C//DTD SVG 1.1//EN" "http://www.w3.org/Graphics/SVG/1.1/DTD/svg11.dtd">

<svg width="500" height="500" viewBox="0 0 500 500" xmlns="http://www.w3.org/2000/svg" xmlns:xlink="http://www.w3.org/1999/xlink" version="1.1" baseProfile="full">
    <g transform="scale(1,-1) translate(0,-500)">
        <path d="M 41.045227 21.757791 L 302.954773 21.757791 C 314.000468 21.757791 322.954773 30.712097 322.954773 41.757793 L 322.954773 325.529364 C 322.954773 324.424795 323.850203 323.529365 324.954773 323.529365 L 19.045227 323.529365 C 20.149797 323.529365 21.045227 324.424795 21.045227 325.529364 L 21.045227 41.757793 C 21.045227 30.712097 29.999532 21.757791 41.045227 21.757791 Z M 41.045227 1.757791 C 18.953837 1.757791 1.045227 19.666402 1.045227 41.757793 L 1.045227 325.529364 C 1.045227 335.470490 9.104101 343.529365 19.045227 343.529365 L 324.954773 343.529365 C 334.895899 343.529365 342.954773 335.470490 342.954773 325.529364 L 342.954773 41.757793 C 342.954773 19.666402 325.046163 1.757791 302.954773 1.757791 L 41.045227 1.757791 Z" transform="scale(1.000000,1.000000) translate(78.000000,71.000000)" fill="#ffffff" opacity="1.000000"></path>
        <path d="M 21.641472 39.915755 L 21.641472 11.619004 L 11.641472 21.619004 L 46.306414 21.619004 L 36.306414 11.619004 L 36.306414 53.278267 L 52.549848 45.466768 C 41.470360 36.611354 31.494192 32.966432 13.222133 30.041469 L 21.641472 39.915755 Z M 1.641472 39.915755 C 1.641472 44.828426 5.209901 49.013514 10.060812 49.790040 C 25.219837 52.216673 32.111914 54.734782 40.062980 61.089767 C 46.611335 66.323618 56.306414 61.661235 56.306414 53.278267 L 56.306414 11.619004 C 56.306414 6.096157 51.829262 1.619004 46.306414 1.619004 L 11.641472 1.619004 C 6.118625 1.619004 1.641472 6.096157 1.641472 11.619004 L 1.641472 39.915755 Z" transform="scale(1.000000,1.000000) translate(367.000000,5.000000)" fill="#ffffff" opacity="1.000000"></path>
        <path d="M 56.264570 40.012423 L 56.264570 11.715673 C 56.264570 6.192825 51.787417 1.715673 46.264570 1.715673 L 11.599628 1.715673 C 6.076781 1.715673 1.599628 6.192825 1.599628 11.715673 L 1.599628 53.374935 C 1.599628 61.757903 11.294707 66.420286 17.843062 61.186435 C 25.794128 54.831451 32.686205 52.313342 47.845230 49.886709 C 52.696141 49.110182 56.264570 44.925094 56.264570 40.012423 Z M 36.264570 40.012423 L 44.683910 30.138138 C 26.411851 33.063100 16.435682 36.708022 5.356194 45.563436 L 21.599628 53.374935 L 21.599628 11.715673 L 11.599628 21.715673 L 46.264570 21.715673 L 36.264570 11.715673 L 36.264570 40.012423 Z" transform="scale(1.000000,1.000000) translate(75.000000,5.000000)" fill="#ffffff" opacity="1.000000"></path>
        <path d="M 1.326542 11.880288 L 1.326542 55.381010 C 1.326542 60.903857 5.803695 65.381010 11.326542 65.381010 L 148.273254 65.381010 C 153.796101 65.381010 158.273254 60.903857 158.273254 55.381010 L 158.273254 11.880288 C 158.273254 6.357440 153.796101 1.880288 148.273254 1.880288 C 142.750406 1.880288 138.273254 6.357440 138.273254 11.880288 L 138.273254 55.381010 L 148.273254 45.381010 L 11.326542 45.381010 L 21.326542 55.381010 L 21.326542 11.880288 C 21.326542 6.357440 16.849390 1.880288 11.326542 1.880288 C 5.803695 1.880288 1.326542 6.357440 1.326542 11.880288 Z" transform="scale(1.000000,1.000000) translate(170.000000,428.000000)" fill="#ffffff" opacity="1.000000"></path>
        <path d="M 1.000000 11.456867 L 1.000000 227.830280 C 1.000000 233.353128 5.477153 237.830280 11.000000 237.830280 C 16.522847 237.830280 21.000000 233.353128 21.000000 227.830280 L 21.000000 11.456867 C 21.000000 5.934019 16.522847 1.456867 11.000000 1.456867 C 5.477153 1.456867 1.000000 5.934019 1.000000 11.456867 Z" transform="scale(1.000000,1.000000) translate(239.000000,124.000000)" fill="#ffffff" opacity="1.000000"></path>
        <path d="M 1.273260 11.456867 L 1.273260 227.830280 C 1.273260 233.353128 5.750413 237.830280 11.273260 237.830280 C 16.796108 237.830280 21.273260 233.353128 21.273260 227.830280 L 21.273260 11.456867 C 21.273260 5.934019 16.796108 1.456867 11.273260 1.456867 C 5.750413 1.456867 1.273260 5.934019 1.273260 11.456867 Z" transform="scale(1.000000,1.000000) translate(307.000000,124.000000)" fill="#ffffff" opacity="1.000000"></path>
        <path d="M 1.326545 11.456867 L 1.326545 227.830280 C 1.326545 233.353128 5.803698 237.830280 11.326545 237.830280 C 16.849393 237.830280 21.326545 233.353128 21.326545 227.830280 L 21.326545 11.456867 C 21.326545 5.934019 16.849393 1.456867 11.326545 1.456867 C 5.803698 1.456867 1.326545 5.934019 1.326545 11.456867 Z" transform="scale(1.000000,1.000000) translate(170.000000,124.000000)" fill="#ffffff" opacity="1.000000"></path>
    </g>
</svg>