<?xml version="1.0" encoding="UTF-8" standalone="yes"?>
<!DOCTYPE svg PUBLIC "-//W3C//DTD SVG 1.1//EN" "http://www.w3.org/Graphics/SVG/1.1/DTD/svg11.dtd">

<svg width="500" height="500" viewBox="0 0 500 500" xmlns="http://www.w3.org/2000/svg" xmlns:xlink="http://www.w3.org/1999/xlink" version="1.1" baseProfile="full">
    <g transform="scale(1,-1) translate(0,-500)">
        <path d="M 328.611500 2.206500 L 332.583100 2.812600 L 336.416500 3.798300 L 340.091500 5.143300 L 343.588100 6.827700 L 346.886100 8.831300 L 349.965400 11.134000 L 352.806000 13.715700 L 355.387600 16.556200 L 357.690300 19.635600 L 359.693900 22.933600 L 361.378300 26.430100 L 362.723400 30.105200 L 363.709000 33.938600 L 364.315200 37.910200 L 364.521700 41.999900 L 364.521700 304.581800 L 364.315200 308.671600 L 363.709000 312.643200 L 362.723400 316.476600 L 361.378300 320.151600 L 359.693900 323.648200 L 357.690300 326.946200 L 355.387600 330.025500 L 352.806000 332.866100 L 349.965400 335.447700 L 346.886100 337.750400 L 343.588100 339.754000 L 340.091500 341.438400 L 336.416500 342.783500 L 332.583100 343.769100 L 328.611500 344.375300 L 324.521700 344.581800 L 265.740200 344.581800 L 265.740200 324.581800 L 324.521700 324.581800 L 326.566600 324.478500 L 328.552400 324.175500 L 330.469100 323.682600 L 332.306600 323.010100 L 334.054900 322.167900 L 335.703900 321.166100 L 337.243600 320.014800 L 338.663800 318.723900 L 339.954700 317.303700 L 341.106000 315.764000 L 342.107800 314.115000 L 342.950000 312.366700 L 343.622500 310.529200 L 344.115400 308.612500 L 344.418400 306.626700 L 344.521700 304.581800 L 344.521700 41.999900 L 344.418400 39.955100 L 344.115400 37.969300 L 343.622500 36.052600 L 342.950000 34.215000 L 342.107800 32.466800 L 341.106000 30.817800 L 339.954700 29.278100 L 338.663800 27.857800 L 337.243600 26.567000 L 335.703900 25.415600 L 334.054900 24.413800 L 332.306600 23.571600 L 330.469100 22.899100 L 328.552400 22.406300 L 326.566600 22.103200 L 324.521700 21.999900 L 41.478200 21.999900 L 39.433300 22.103200 L 37.447500 22.406300 L 35.530800 22.899100 L 33.693300 23.571600 L 31.945000 24.413800 L 30.296000 25.415600 L 28.756400 26.567000 L 27.336100 27.857800 L 26.045200 29.278100 L 24.893900 30.817800 L 23.892100 32.466800 L 23.049900 34.215000 L 22.377400 36.052600 L 21.884500 37.969300 L 21.581500 39.955100 L 21.478200 41.999900 L 21.478200 304.581800 L 21.581500 306.626700 L 21.884500 308.612500 L 22.377400 310.529200 L 23.049900 312.366700 L 23.892100 314.115000 L 24.893900 315.764000 L 26.045200 317.303700 L 27.336100 318.723900 L 28.756400 320.014800 L 30.296000 321.166100 L 31.945000 322.167900 L 33.693300 323.010100 L 35.530800 323.682600 L 37.447500 324.175500 L 39.433300 324.478500 L 41.478200 324.581800 L 100.259700 324.581800 L 100.259700 344.581800 L 41.478200 344.581800 L 37.388400 344.375300 L 33.416800 343.769100 L 29.583400 342.783500 L 25.908400 341.438400 L 22.411800 339.754000 L 19.113800 337.750400 L 16.034500 335.447700 L 13.193900 332.866100 L 10.612300 330.025500 L 8.309600 326.946200 L 6.306000 323.648200 L 4.621600 320.151600 L 3.276500 316.476600 L 2.290900 312.643200 L 1.684700 308.671600 L 1.478200 304.581800 L 1.478200 41.999900 L 1.684700 37.910200 L 2.290900 33.938600 L 3.276500 30.105200 L 4.621600 26.430100 L 6.306000 22.933600 L 8.309600 19.635600 L 10.612300 16.556200 L 13.193900 13.715700 L 16.034500 11.134000 L 19.113800 8.831300 L 22.411800 6.827700 L 25.908400 5.143300 L 29.583400 3.798300 L 33.416800 2.812600 L 37.388400 2.206500 L 41.478200 2.000000 L 324.521700 2.000000 Z" transform="scale(1.000000,1.000000) translate(67.000000,-2.000000)" fill="#ffffff" opacity="1.000000"></path>
        <path d="M 1.000000 11.932385 L 1.000000 327.472133 C 1.000000 332.994980 5.477153 337.472133 11.000000 337.472133 C 16.522847 337.472133 21.000000 332.994980 21.000000 327.472133 L 21.000000 11.932385 C 21.000000 6.409537 16.522847 1.932385 11.000000 1.932385 C 5.477153 1.932385 1.000000 6.409537 1.000000 11.932385 Z" transform="scale(1.000000,1.000000) translate(239.000000,162.000000)" fill="#ffffff" opacity="1.000000"></path>
        <path d="M 4.861427 19.213758 L 83.153246 92.760614 C 87.178562 96.541972 93.507123 96.344204 97.288481 92.318887 C 101.069839 88.293571 100.872071 81.965010 96.846754 78.183652 L 18.554936 4.636796 C 14.529619 0.855438 8.201059 1.053206 4.419701 5.078523 C 0.638343 9.103840 0.836111 15.432400 4.861427 19.213758 Z" transform="scale(1.000000,1.000000) translate(160.000000,404.000000)" fill="#ffffff" opacity="1.000000"></path>
        <path d="M 83.445064 4.636796 L 5.153246 78.183652 C 1.127929 81.965010 0.930161 88.293571 4.711519 92.318887 C 8.492877 96.344204 14.821438 96.541972 18.846754 92.760614 L 97.138573 19.213758 C 101.163889 15.432400 101.361657 9.103840 97.580299 5.078523 C 93.798941 1.053206 87.470381 0.855438 83.445064 4.636796 Z" transform="scale(1.000000,1.000000) translate(238.000000,404.000000)" fill="#ffffff" opacity="1.000000"></path>
    </g>
</svg>